<mxfile host="app.diagrams.net" agent="Mozilla/5.0 (Windows NT 10.0; Win64; x64) AppleWebKit/537.36 (KHTML, like Gecko) Chrome/131.0.0.0 Safari/537.36 Edg/131.0.0.0" version="25.0.3">
  <diagram name="Page-1" id="b5b7bab2-c9e2-2cf4-8b2a-24fd1a2a6d21">
    <mxGraphModel dx="1022" dy="620" grid="1" gridSize="10" guides="1" tooltips="1" connect="1" arrows="1" fold="1" page="1" pageScale="1" pageWidth="827" pageHeight="1169" background="none" math="0" shadow="0">
      <root>
        <mxCell id="0" />
        <mxCell id="1" parent="0" />
        <mxCell id="3tw9AYnYGGNFN01JuL-y-1" value="login.html" style="swimlane;startSize=20;" vertex="1" parent="1">
          <mxGeometry x="110" y="200" width="320" height="220" as="geometry" />
        </mxCell>
        <mxCell id="3tw9AYnYGGNFN01JuL-y-28" value="Login Button" style="swimlane;fontStyle=0;childLayout=stackLayout;horizontal=1;startSize=30;horizontalStack=0;resizeParent=1;resizeParentMax=0;resizeLast=0;collapsible=1;marginBottom=0;whiteSpace=wrap;html=1;" vertex="1" parent="3tw9AYnYGGNFN01JuL-y-1">
          <mxGeometry x="194" y="150" width="110" height="60" as="geometry" />
        </mxCell>
        <mxCell id="3tw9AYnYGGNFN01JuL-y-29" value="click(/login,POST)" style="text;strokeColor=none;fillColor=none;align=left;verticalAlign=middle;spacingLeft=4;spacingRight=4;overflow=hidden;points=[[0,0.5],[1,0.5]];portConstraint=eastwest;rotatable=0;whiteSpace=wrap;html=1;" vertex="1" parent="3tw9AYnYGGNFN01JuL-y-28">
          <mxGeometry y="30" width="110" height="30" as="geometry" />
        </mxCell>
        <mxCell id="3tw9AYnYGGNFN01JuL-y-34" value="Forget Button" style="swimlane;fontStyle=0;childLayout=stackLayout;horizontal=1;startSize=30;horizontalStack=0;resizeParent=1;resizeParentMax=0;resizeLast=0;collapsible=1;marginBottom=0;whiteSpace=wrap;html=1;" vertex="1" parent="3tw9AYnYGGNFN01JuL-y-1">
          <mxGeometry x="18" y="130" width="120" height="60" as="geometry" />
        </mxCell>
        <mxCell id="3tw9AYnYGGNFN01JuL-y-35" value="herf=&quot;forget.html&quot;" style="text;strokeColor=none;fillColor=none;align=left;verticalAlign=middle;spacingLeft=4;spacingRight=4;overflow=hidden;points=[[0,0.5],[1,0.5]];portConstraint=eastwest;rotatable=0;whiteSpace=wrap;html=1;" vertex="1" parent="3tw9AYnYGGNFN01JuL-y-34">
          <mxGeometry y="30" width="120" height="30" as="geometry" />
        </mxCell>
        <mxCell id="3tw9AYnYGGNFN01JuL-y-32" value="Register Button" style="swimlane;fontStyle=0;childLayout=stackLayout;horizontal=1;startSize=30;horizontalStack=0;resizeParent=1;resizeParentMax=0;resizeLast=0;collapsible=1;marginBottom=0;whiteSpace=wrap;html=1;" vertex="1" parent="3tw9AYnYGGNFN01JuL-y-1">
          <mxGeometry x="172" y="40" width="130" height="60" as="geometry" />
        </mxCell>
        <mxCell id="3tw9AYnYGGNFN01JuL-y-33" value="herf=&quot;register.html&quot;" style="text;strokeColor=none;fillColor=none;align=left;verticalAlign=middle;spacingLeft=4;spacingRight=4;overflow=hidden;points=[[0,0.5],[1,0.5]];portConstraint=eastwest;rotatable=0;whiteSpace=wrap;html=1;" vertex="1" parent="3tw9AYnYGGNFN01JuL-y-32">
          <mxGeometry y="30" width="130" height="30" as="geometry" />
        </mxCell>
        <mxCell id="3tw9AYnYGGNFN01JuL-y-42" value="Text Box" style="swimlane;fontStyle=0;childLayout=stackLayout;horizontal=1;startSize=30;horizontalStack=0;resizeParent=1;resizeParentMax=0;resizeLast=0;collapsible=1;marginBottom=0;whiteSpace=wrap;html=1;" vertex="1" parent="3tw9AYnYGGNFN01JuL-y-1">
          <mxGeometry x="38" y="40" width="100" height="60" as="geometry" />
        </mxCell>
        <mxCell id="3tw9AYnYGGNFN01JuL-y-43" value="get(text)" style="text;strokeColor=none;fillColor=none;align=left;verticalAlign=middle;spacingLeft=4;spacingRight=4;overflow=hidden;points=[[0,0.5],[1,0.5]];portConstraint=eastwest;rotatable=0;whiteSpace=wrap;html=1;" vertex="1" parent="3tw9AYnYGGNFN01JuL-y-42">
          <mxGeometry y="30" width="100" height="30" as="geometry" />
        </mxCell>
        <mxCell id="3tw9AYnYGGNFN01JuL-y-94" value="" style="endArrow=none;html=1;rounded=0;" edge="1" parent="3tw9AYnYGGNFN01JuL-y-1">
          <mxGeometry width="50" height="50" relative="1" as="geometry">
            <mxPoint x="350" y="300" as="sourcePoint" />
            <mxPoint x="350" y="200" as="targetPoint" />
          </mxGeometry>
        </mxCell>
        <mxCell id="3tw9AYnYGGNFN01JuL-y-3" value="forget.html" style="swimlane;startSize=20;" vertex="1" parent="1">
          <mxGeometry x="180" y="460" width="250" height="190" as="geometry" />
        </mxCell>
        <mxCell id="3tw9AYnYGGNFN01JuL-y-40" value="Forget Button" style="swimlane;fontStyle=0;childLayout=stackLayout;horizontal=1;startSize=30;horizontalStack=0;resizeParent=1;resizeParentMax=0;resizeLast=0;collapsible=1;marginBottom=0;whiteSpace=wrap;html=1;" vertex="1" parent="3tw9AYnYGGNFN01JuL-y-3">
          <mxGeometry x="100" y="100" width="130" height="60" as="geometry" />
        </mxCell>
        <mxCell id="3tw9AYnYGGNFN01JuL-y-41" value="click(/forget,POST)" style="text;strokeColor=none;fillColor=none;align=left;verticalAlign=middle;spacingLeft=4;spacingRight=4;overflow=hidden;points=[[0,0.5],[1,0.5]];portConstraint=eastwest;rotatable=0;whiteSpace=wrap;html=1;" vertex="1" parent="3tw9AYnYGGNFN01JuL-y-40">
          <mxGeometry y="30" width="130" height="30" as="geometry" />
        </mxCell>
        <mxCell id="3tw9AYnYGGNFN01JuL-y-46" value="Text Box" style="swimlane;fontStyle=0;childLayout=stackLayout;horizontal=1;startSize=30;horizontalStack=0;resizeParent=1;resizeParentMax=0;resizeLast=0;collapsible=1;marginBottom=0;whiteSpace=wrap;html=1;" vertex="1" parent="3tw9AYnYGGNFN01JuL-y-3">
          <mxGeometry x="30" y="35" width="100" height="60" as="geometry" />
        </mxCell>
        <mxCell id="3tw9AYnYGGNFN01JuL-y-47" value="get(text)" style="text;strokeColor=none;fillColor=none;align=left;verticalAlign=middle;spacingLeft=4;spacingRight=4;overflow=hidden;points=[[0,0.5],[1,0.5]];portConstraint=eastwest;rotatable=0;whiteSpace=wrap;html=1;" vertex="1" parent="3tw9AYnYGGNFN01JuL-y-46">
          <mxGeometry y="30" width="100" height="30" as="geometry" />
        </mxCell>
        <mxCell id="3tw9AYnYGGNFN01JuL-y-4" value="register.html" style="swimlane;startSize=20;" vertex="1" parent="1">
          <mxGeometry x="520" y="200" width="280" height="210" as="geometry" />
        </mxCell>
        <mxCell id="3tw9AYnYGGNFN01JuL-y-38" value="Register Button" style="swimlane;fontStyle=0;childLayout=stackLayout;horizontal=1;startSize=30;horizontalStack=0;resizeParent=1;resizeParentMax=0;resizeLast=0;collapsible=1;marginBottom=0;whiteSpace=wrap;html=1;" vertex="1" parent="3tw9AYnYGGNFN01JuL-y-4">
          <mxGeometry x="20" y="130" width="130" height="60" as="geometry" />
        </mxCell>
        <mxCell id="3tw9AYnYGGNFN01JuL-y-39" value="click(/register,POST)" style="text;strokeColor=none;fillColor=none;align=left;verticalAlign=middle;spacingLeft=4;spacingRight=4;overflow=hidden;points=[[0,0.5],[1,0.5]];portConstraint=eastwest;rotatable=0;whiteSpace=wrap;html=1;" vertex="1" parent="3tw9AYnYGGNFN01JuL-y-38">
          <mxGeometry y="30" width="130" height="30" as="geometry" />
        </mxCell>
        <mxCell id="3tw9AYnYGGNFN01JuL-y-44" value="Text Box" style="swimlane;fontStyle=0;childLayout=stackLayout;horizontal=1;startSize=30;horizontalStack=0;resizeParent=1;resizeParentMax=0;resizeLast=0;collapsible=1;marginBottom=0;whiteSpace=wrap;html=1;" vertex="1" parent="3tw9AYnYGGNFN01JuL-y-4">
          <mxGeometry x="50" y="40" width="100" height="60" as="geometry" />
        </mxCell>
        <mxCell id="3tw9AYnYGGNFN01JuL-y-45" value="get(text)" style="text;strokeColor=none;fillColor=none;align=left;verticalAlign=middle;spacingLeft=4;spacingRight=4;overflow=hidden;points=[[0,0.5],[1,0.5]];portConstraint=eastwest;rotatable=0;whiteSpace=wrap;html=1;" vertex="1" parent="3tw9AYnYGGNFN01JuL-y-44">
          <mxGeometry y="30" width="100" height="30" as="geometry" />
        </mxCell>
        <mxCell id="3tw9AYnYGGNFN01JuL-y-13" value="Flask" style="swimlane;startSize=20;" vertex="1" parent="1">
          <mxGeometry x="600" y="465" width="200" height="110" as="geometry" />
        </mxCell>
        <mxCell id="3tw9AYnYGGNFN01JuL-y-18" value="/register" style="whiteSpace=wrap;html=1;" vertex="1" parent="3tw9AYnYGGNFN01JuL-y-13">
          <mxGeometry x="10" y="30" width="70" height="20" as="geometry" />
        </mxCell>
        <mxCell id="3tw9AYnYGGNFN01JuL-y-21" value="/reset-password" style="whiteSpace=wrap;html=1;" vertex="1" parent="3tw9AYnYGGNFN01JuL-y-13">
          <mxGeometry x="90" y="30" width="100" height="20" as="geometry" />
        </mxCell>
        <mxCell id="3tw9AYnYGGNFN01JuL-y-22" value="/login" style="whiteSpace=wrap;html=1;" vertex="1" parent="3tw9AYnYGGNFN01JuL-y-13">
          <mxGeometry x="10" y="60" width="70" height="20" as="geometry" />
        </mxCell>
        <mxCell id="3tw9AYnYGGNFN01JuL-y-23" value="/forgot-password" style="whiteSpace=wrap;html=1;" vertex="1" parent="3tw9AYnYGGNFN01JuL-y-13">
          <mxGeometry x="90" y="60" width="100" height="20" as="geometry" />
        </mxCell>
        <mxCell id="3tw9AYnYGGNFN01JuL-y-26" value="/submit-feedback" style="whiteSpace=wrap;html=1;" vertex="1" parent="3tw9AYnYGGNFN01JuL-y-13">
          <mxGeometry x="50" y="85" width="100" height="20" as="geometry" />
        </mxCell>
        <mxCell id="3tw9AYnYGGNFN01JuL-y-14" value="Mysql" style="swimlane;startSize=20;" vertex="1" parent="1">
          <mxGeometry x="520" y="610" width="280" height="100" as="geometry" />
        </mxCell>
        <mxCell id="3tw9AYnYGGNFN01JuL-y-16" value="user table" style="whiteSpace=wrap;html=1;" vertex="1" parent="3tw9AYnYGGNFN01JuL-y-14">
          <mxGeometry x="20" y="32.5" width="90" height="25" as="geometry" />
        </mxCell>
        <mxCell id="3tw9AYnYGGNFN01JuL-y-17" value="feedback table" style="whiteSpace=wrap;html=1;" vertex="1" parent="3tw9AYnYGGNFN01JuL-y-14">
          <mxGeometry x="140" y="30" width="120" height="30" as="geometry" />
        </mxCell>
        <mxCell id="3tw9AYnYGGNFN01JuL-y-27" value="admin table" style="whiteSpace=wrap;html=1;" vertex="1" parent="3tw9AYnYGGNFN01JuL-y-14">
          <mxGeometry x="80" y="70" width="90" height="25" as="geometry" />
        </mxCell>
        <mxCell id="3tw9AYnYGGNFN01JuL-y-49" value="" style="rounded=0;orthogonalLoop=1;jettySize=auto;html=1;endArrow=oval;endFill=0;sketch=0;sourcePerimeterSpacing=0;targetPerimeterSpacing=0;endSize=10;" edge="1" target="3tw9AYnYGGNFN01JuL-y-50" parent="1">
          <mxGeometry relative="1" as="geometry">
            <mxPoint x="470" y="380" as="sourcePoint" />
          </mxGeometry>
        </mxCell>
        <mxCell id="3tw9AYnYGGNFN01JuL-y-60" value="" style="rounded=0;orthogonalLoop=1;jettySize=auto;html=1;endArrow=halfCircle;endFill=0;endSize=6;strokeWidth=1;sketch=0;entryX=0.405;entryY=0.595;entryDx=0;entryDy=0;entryPerimeter=0;" edge="1" target="3tw9AYnYGGNFN01JuL-y-62" parent="1">
          <mxGeometry relative="1" as="geometry">
            <mxPoint x="130" y="420" as="sourcePoint" />
            <mxPoint x="130" y="430" as="targetPoint" />
          </mxGeometry>
        </mxCell>
        <mxCell id="3tw9AYnYGGNFN01JuL-y-61" value="" style="rounded=0;orthogonalLoop=1;jettySize=auto;html=1;endArrow=oval;endFill=0;sketch=0;sourcePerimeterSpacing=0;targetPerimeterSpacing=0;endSize=10;" edge="1" target="3tw9AYnYGGNFN01JuL-y-62" parent="1">
          <mxGeometry relative="1" as="geometry">
            <mxPoint x="130" y="510" as="sourcePoint" />
          </mxGeometry>
        </mxCell>
        <mxCell id="3tw9AYnYGGNFN01JuL-y-62" value="" style="ellipse;whiteSpace=wrap;html=1;align=center;aspect=fixed;fillColor=none;strokeColor=none;resizable=0;perimeter=centerPerimeter;rotatable=0;allowArrows=0;points=[];outlineConnect=1;" vertex="1" parent="1">
          <mxGeometry x="125" y="430" width="10" height="10" as="geometry" />
        </mxCell>
        <mxCell id="3tw9AYnYGGNFN01JuL-y-66" value="" style="rounded=0;orthogonalLoop=1;jettySize=auto;html=1;endArrow=halfCircle;endFill=0;endSize=6;strokeWidth=1;sketch=0;" edge="1" target="3tw9AYnYGGNFN01JuL-y-68" parent="1">
          <mxGeometry relative="1" as="geometry">
            <mxPoint x="180" y="510" as="sourcePoint" />
          </mxGeometry>
        </mxCell>
        <mxCell id="3tw9AYnYGGNFN01JuL-y-67" value="" style="rounded=0;orthogonalLoop=1;jettySize=auto;html=1;endArrow=oval;endFill=0;sketch=0;sourcePerimeterSpacing=0;targetPerimeterSpacing=0;endSize=10;" edge="1" target="3tw9AYnYGGNFN01JuL-y-68" parent="1">
          <mxGeometry relative="1" as="geometry">
            <mxPoint x="130" y="510" as="sourcePoint" />
          </mxGeometry>
        </mxCell>
        <mxCell id="3tw9AYnYGGNFN01JuL-y-68" value="" style="ellipse;whiteSpace=wrap;html=1;align=center;aspect=fixed;fillColor=none;strokeColor=none;resizable=0;perimeter=centerPerimeter;rotatable=0;allowArrows=0;points=[];outlineConnect=1;" vertex="1" parent="1">
          <mxGeometry x="155" y="505" width="10" height="10" as="geometry" />
        </mxCell>
        <mxCell id="3tw9AYnYGGNFN01JuL-y-69" value="" style="rounded=0;orthogonalLoop=1;jettySize=auto;html=1;endArrow=halfCircle;endFill=0;endSize=6;strokeWidth=1;sketch=0;" edge="1" parent="1">
          <mxGeometry relative="1" as="geometry">
            <mxPoint x="430" y="380" as="sourcePoint" />
            <mxPoint x="450" y="380" as="targetPoint" />
          </mxGeometry>
        </mxCell>
        <mxCell id="3tw9AYnYGGNFN01JuL-y-70" value="" style="rounded=0;orthogonalLoop=1;jettySize=auto;html=1;endArrow=oval;endFill=0;sketch=0;sourcePerimeterSpacing=0;targetPerimeterSpacing=0;endSize=10;" edge="1" parent="1">
          <mxGeometry relative="1" as="geometry">
            <mxPoint x="470" y="380" as="sourcePoint" />
            <mxPoint x="450" y="380" as="targetPoint" />
          </mxGeometry>
        </mxCell>
        <mxCell id="3tw9AYnYGGNFN01JuL-y-71" value="" style="ellipse;whiteSpace=wrap;html=1;align=center;aspect=fixed;fillColor=none;strokeColor=none;resizable=0;perimeter=centerPerimeter;rotatable=0;allowArrows=0;points=[];outlineConnect=1;" vertex="1" parent="1">
          <mxGeometry x="480" y="340" width="10" height="10" as="geometry" />
        </mxCell>
        <mxCell id="3tw9AYnYGGNFN01JuL-y-72" value="" style="rounded=0;orthogonalLoop=1;jettySize=auto;html=1;endArrow=halfCircle;endFill=0;endSize=6;strokeWidth=1;sketch=0;" edge="1" parent="1" source="3tw9AYnYGGNFN01JuL-y-50">
          <mxGeometry relative="1" as="geometry">
            <mxPoint x="520" y="380" as="sourcePoint" />
            <mxPoint x="500" y="380" as="targetPoint" />
          </mxGeometry>
        </mxCell>
        <mxCell id="3tw9AYnYGGNFN01JuL-y-73" value="" style="rounded=0;orthogonalLoop=1;jettySize=auto;html=1;endArrow=halfCircle;endFill=0;endSize=6;strokeWidth=1;sketch=0;" edge="1" parent="1" target="3tw9AYnYGGNFN01JuL-y-50">
          <mxGeometry relative="1" as="geometry">
            <mxPoint x="520" y="380" as="sourcePoint" />
            <mxPoint x="500" y="380" as="targetPoint" />
          </mxGeometry>
        </mxCell>
        <mxCell id="3tw9AYnYGGNFN01JuL-y-50" value="" style="ellipse;whiteSpace=wrap;html=1;align=center;aspect=fixed;fillColor=none;strokeColor=none;resizable=0;perimeter=centerPerimeter;rotatable=0;allowArrows=0;points=[];outlineConnect=1;" vertex="1" parent="1">
          <mxGeometry x="495" y="375" width="10" height="10" as="geometry" />
        </mxCell>
        <mxCell id="3tw9AYnYGGNFN01JuL-y-74" value="" style="rounded=0;orthogonalLoop=1;jettySize=auto;html=1;endArrow=halfCircle;endFill=0;endSize=6;strokeWidth=1;sketch=0;" edge="1" target="3tw9AYnYGGNFN01JuL-y-76" parent="1">
          <mxGeometry relative="1" as="geometry">
            <mxPoint x="600" y="500" as="sourcePoint" />
          </mxGeometry>
        </mxCell>
        <mxCell id="3tw9AYnYGGNFN01JuL-y-75" value="" style="rounded=0;orthogonalLoop=1;jettySize=auto;html=1;endArrow=oval;endFill=0;sketch=0;sourcePerimeterSpacing=0;targetPerimeterSpacing=0;endSize=10;" edge="1" target="3tw9AYnYGGNFN01JuL-y-76" parent="1">
          <mxGeometry relative="1" as="geometry">
            <mxPoint x="560" y="500" as="sourcePoint" />
          </mxGeometry>
        </mxCell>
        <mxCell id="3tw9AYnYGGNFN01JuL-y-76" value="" style="ellipse;whiteSpace=wrap;html=1;align=center;aspect=fixed;fillColor=none;strokeColor=none;resizable=0;perimeter=centerPerimeter;rotatable=0;allowArrows=0;points=[];outlineConnect=1;" vertex="1" parent="1">
          <mxGeometry x="575" y="495" width="10" height="10" as="geometry" />
        </mxCell>
        <mxCell id="3tw9AYnYGGNFN01JuL-y-83" value="" style="rounded=0;orthogonalLoop=1;jettySize=auto;html=1;endArrow=halfCircle;endFill=0;endSize=6;strokeWidth=1;sketch=0;" edge="1" target="3tw9AYnYGGNFN01JuL-y-85" parent="1">
          <mxGeometry relative="1" as="geometry">
            <mxPoint x="520" y="675" as="sourcePoint" />
          </mxGeometry>
        </mxCell>
        <mxCell id="3tw9AYnYGGNFN01JuL-y-84" value="" style="rounded=0;orthogonalLoop=1;jettySize=auto;html=1;endArrow=oval;endFill=0;sketch=0;sourcePerimeterSpacing=0;targetPerimeterSpacing=0;endSize=10;" edge="1" target="3tw9AYnYGGNFN01JuL-y-85" parent="1">
          <mxGeometry relative="1" as="geometry">
            <mxPoint x="470" y="675" as="sourcePoint" />
          </mxGeometry>
        </mxCell>
        <mxCell id="3tw9AYnYGGNFN01JuL-y-85" value="" style="ellipse;whiteSpace=wrap;html=1;align=center;aspect=fixed;fillColor=none;strokeColor=none;resizable=0;perimeter=centerPerimeter;rotatable=0;allowArrows=0;points=[];outlineConnect=1;" vertex="1" parent="1">
          <mxGeometry x="495" y="670" width="10" height="10" as="geometry" />
        </mxCell>
        <mxCell id="3tw9AYnYGGNFN01JuL-y-86" value="" style="rounded=0;orthogonalLoop=1;jettySize=auto;html=1;endArrow=halfCircle;endFill=0;endSize=6;strokeWidth=1;sketch=0;" edge="1" target="3tw9AYnYGGNFN01JuL-y-88" parent="1">
          <mxGeometry relative="1" as="geometry">
            <mxPoint x="600" y="520" as="sourcePoint" />
          </mxGeometry>
        </mxCell>
        <mxCell id="3tw9AYnYGGNFN01JuL-y-87" value="" style="rounded=0;orthogonalLoop=1;jettySize=auto;html=1;endArrow=oval;endFill=0;sketch=0;sourcePerimeterSpacing=0;targetPerimeterSpacing=0;endSize=10;" edge="1" target="3tw9AYnYGGNFN01JuL-y-88" parent="1">
          <mxGeometry relative="1" as="geometry">
            <mxPoint x="560" y="520" as="sourcePoint" />
          </mxGeometry>
        </mxCell>
        <mxCell id="3tw9AYnYGGNFN01JuL-y-88" value="" style="ellipse;whiteSpace=wrap;html=1;align=center;aspect=fixed;fillColor=none;strokeColor=none;resizable=0;perimeter=centerPerimeter;rotatable=0;allowArrows=0;points=[];outlineConnect=1;" vertex="1" parent="1">
          <mxGeometry x="575" y="515" width="10" height="10" as="geometry" />
        </mxCell>
        <mxCell id="3tw9AYnYGGNFN01JuL-y-90" value="" style="endArrow=none;html=1;rounded=0;" edge="1" parent="1">
          <mxGeometry width="50" height="50" relative="1" as="geometry">
            <mxPoint x="410" y="610" as="sourcePoint" />
            <mxPoint x="460" y="610" as="targetPoint" />
          </mxGeometry>
        </mxCell>
        <mxCell id="3tw9AYnYGGNFN01JuL-y-91" value="" style="endArrow=none;html=1;rounded=0;" edge="1" parent="1">
          <mxGeometry width="50" height="50" relative="1" as="geometry">
            <mxPoint x="460" y="610" as="sourcePoint" />
            <mxPoint x="460" y="500" as="targetPoint" />
          </mxGeometry>
        </mxCell>
        <mxCell id="3tw9AYnYGGNFN01JuL-y-92" value="" style="endArrow=none;html=1;rounded=0;" edge="1" parent="1">
          <mxGeometry width="50" height="50" relative="1" as="geometry">
            <mxPoint x="460" y="500" as="sourcePoint" />
            <mxPoint x="560" y="500" as="targetPoint" />
          </mxGeometry>
        </mxCell>
        <mxCell id="3tw9AYnYGGNFN01JuL-y-93" value="" style="endArrow=none;html=1;rounded=0;exitX=0.936;exitY=1.022;exitDx=0;exitDy=0;exitPerimeter=0;" edge="1" parent="1">
          <mxGeometry width="50" height="50" relative="1" as="geometry">
            <mxPoint x="414.00000000000006" y="399.99999999999994" as="sourcePoint" />
            <mxPoint x="460" y="400" as="targetPoint" />
          </mxGeometry>
        </mxCell>
        <mxCell id="3tw9AYnYGGNFN01JuL-y-95" value="" style="endArrow=none;html=1;rounded=0;entryX=0.077;entryY=1;entryDx=0;entryDy=0;entryPerimeter=0;" edge="1" parent="1" target="3tw9AYnYGGNFN01JuL-y-39">
          <mxGeometry width="50" height="50" relative="1" as="geometry">
            <mxPoint x="550" y="500" as="sourcePoint" />
            <mxPoint x="600" y="450" as="targetPoint" />
          </mxGeometry>
        </mxCell>
        <mxCell id="3tw9AYnYGGNFN01JuL-y-96" value="" style="endArrow=none;html=1;rounded=0;" edge="1" parent="1">
          <mxGeometry width="50" height="50" relative="1" as="geometry">
            <mxPoint x="470" y="520" as="sourcePoint" />
            <mxPoint x="560" y="520" as="targetPoint" />
          </mxGeometry>
        </mxCell>
        <mxCell id="3tw9AYnYGGNFN01JuL-y-97" value="" style="endArrow=none;html=1;rounded=0;" edge="1" parent="1">
          <mxGeometry width="50" height="50" relative="1" as="geometry">
            <mxPoint x="470" y="675" as="sourcePoint" />
            <mxPoint x="470" y="520" as="targetPoint" />
          </mxGeometry>
        </mxCell>
      </root>
    </mxGraphModel>
  </diagram>
</mxfile>
